OFF
24 48 0
0 3.037587946901803 4.451801509274898
-4.451801509274898 -3.037587946901803 0
-4.451801509274898 0 -3.037587946901803
-4.451801509274898 0 3.037587946901803
-4.451801509274898 3.037587946901803 0
-3.037587946901803 -4.451801509274898 0
-3.037587946901803 0 -4.451801509274898
-3.037587946901803 0 4.451801509274898
-3.037587946901803 4.451801509274898 0
0 -4.451801509274898 -3.037587946901803
0 -4.451801509274898 3.037587946901803
0 -3.037587946901803 -4.451801509274898
0 -3.037587946901803 4.451801509274898
0 4.451801509274898 -3.037587946901803
0 4.451801509274898 3.037587946901803
0 3.037587946901803 -4.451801509274898
4.451801509274898 -3.037587946901803 0
4.451801509274898 0 -3.037587946901803
4.451801509274898 0 3.037587946901803
4.451801509274898 3.037587946901803 0
3.037587946901803 -4.451801509274898 0
3.037587946901803 0 -4.451801509274898
3.037587946901803 0 4.451801509274898
3.037587946901803 4.451801509274898 0
4 0 1 6 13
4 0 1 20 18
4 0 3 5 16
4 0 3 6 23
4 0 8 2 10
4 0 8 21 18
4 0 10 17 23
4 0 13 21 16
4 1 6 17 10
4 1 7 14 15
4 1 7 18 9
4 1 8 21 9
4 1 8 22 10
4 1 15 17 20
4 2 5 12 14
4 2 5 16 15
4 2 7 20 11
4 2 7 23 15
4 2 8 19 11
4 2 10 16 21
4 2 14 19 21
4 3 5 11 13
4 3 6 20 12
4 3 8 15 9
4 3 8 19 12
4 3 9 16 22
4 3 13 19 22
4 4 5 21 13
4 4 5 22 14
4 4 6 9 12
4 4 6 17 14
4 4 7 10 11
4 4 7 18 13
4 4 11 17 23
4 4 12 18 23
4 5 11 17 22
4 5 12 18 21
4 6 9 16 23
4 6 13 19 20
4 7 10 16 23
4 7 14 19 20
4 8 15 17 22
4 9 12 19 21
4 9 15 23 18
4 10 11 19 22
4 11 13 18 20
4 12 14 17 20
4 14 15 16 22
